<?xml version="1.0" standalone="no"?>
<!DOCTYPE svg PUBLIC "-//W3C//DTD SVG 20010904//EN"
 "http://www.w3.org/TR/2001/REC-SVG-20010904/DTD/svg10.dtd">
<svg version="1.0" xmlns="http://www.w3.org/2000/svg"
 width="64.000000pt" height="64.000000pt" viewBox="0 0 64.000000 64.000000"
 preserveAspectRatio="xMidYMid meet">

<g transform="translate(0.000000,64.000000) scale(0.100000,-0.100000)"
fill="#000000" stroke="none">
<path d="M173 594 c-7 -3 -13 -14 -13 -25 0 -10 -9 -28 -21 -40 -17 -17 -20
-28 -14 -53 4 -17 17 -115 29 -218 13 -109 27 -193 35 -202 20 -23 242 -23
262 0 8 9 22 93 35 202 12 103 25 201 29 218 6 25 2 36 -19 59 -14 15 -26 31
-26 35 0 12 -276 33 -297 24z m210 -30 c124 -10 89 -24 -63 -24 -136 0 -140 1
-140 21 0 20 4 21 63 15 34 -3 97 -8 140 -12z m111 -60 c9 -22 8 -24 -9 -24
-16 0 -21 -16 -6 -22 10 -3 -29 -365 -42 -386 -6 -8 -41 -12 -118 -12 -104 0
-110 1 -119 23 -5 12 -16 90 -25 172 -9 83 -18 162 -21 178 l-6 27 111 0 c67
0 111 4 111 10 0 6 -45 10 -115 10 -63 0 -115 2 -115 4 0 2 3 11 6 20 5 14 30
16 174 16 144 0 169 -2 174 -16z"/>
<path d="M390 470 c0 -5 14 -10 30 -10 17 0 30 5 30 10 0 6 -13 10 -30 10 -16
0 -30 -4 -30 -10z"/>
<path d="M293 383 c-31 -42 -53 -90 -53 -113 0 -32 44 -70 80 -70 36 0 80 38
80 69 0 11 -5 32 -12 46 l-11 25 -24 -22 c-30 -28 -43 -15 -14 16 22 23 22 25
6 50 -22 33 -26 32 -52 -1z m37 -17 c0 -7 -7 -19 -15 -26 -36 -30 -3 -76 37
-51 25 16 32 9 24 -24 -9 -34 -48 -52 -81 -37 -38 17 -42 54 -11 107 27 45 46
58 46 31z"/>
<path d="M230 100 c0 -11 5 -20 10 -20 6 0 10 9 10 20 0 11 -4 20 -10 20 -5 0
-10 -9 -10 -20z"/>
<path d="M280 100 c0 -11 5 -20 10 -20 6 0 10 9 10 20 0 11 -4 20 -10 20 -5 0
-10 -9 -10 -20z"/>
<path d="M330 100 c0 -11 5 -20 10 -20 6 0 10 9 10 20 0 11 -4 20 -10 20 -5 0
-10 -9 -10 -20z"/>
<path d="M380 100 c0 -11 5 -20 10 -20 6 0 10 9 10 20 0 11 -4 20 -10 20 -5 0
-10 -9 -10 -20z"/>
</g>
</svg>
