<?xml version="1.0" standalone="no"?>
<!DOCTYPE svg PUBLIC "-//W3C//DTD SVG 20010904//EN"
 "http://www.w3.org/TR/2001/REC-SVG-20010904/DTD/svg10.dtd">
<svg version="1.0" xmlns="http://www.w3.org/2000/svg"
 width="100.000000pt" height="100.000000pt" viewBox="0 0 100.000000 100.000000"
 preserveAspectRatio="xMidYMid meet">

<g transform="translate(0.000000,100.000000) scale(0.100000,-0.100000)"
fill="#000000" stroke="none">
<path d="M245 801 c-22 -10 -54 -34 -72 -54 -93 -106 -62 -250 86 -397 66 -65
190 -159 233 -175 22 -8 166 93 249 175 147 146 178 292 86 397 -77 87 -206
97 -292 21 l-35 -30 -35 30 c-59 53 -148 66 -220 33z m146 -13 c22 -6 55 -26
74 -45 l35 -34 35 34 c58 56 138 71 210 38 77 -35 123 -116 111 -197 -14 -104
-123 -238 -279 -343 l-77 -52 -73 48 c-109 73 -220 186 -256 263 -35 73 -39
122 -16 178 21 49 52 81 100 103 47 22 83 24 136 7z"/>
<path d="M258 739 c-43 -22 -78 -81 -78 -131 0 -85 112 -230 252 -325 l67 -46
58 38 c57 37 203 171 203 186 0 4 -30 -23 -67 -60 -38 -37 -96 -86 -131 -110
l-62 -42 -58 38 c-139 92 -252 236 -252 323 0 70 69 140 140 140 38 0 82 -23
123 -64 34 -34 60 -33 100 5 46 44 84 61 127 57 21 -2 36 0 34 4 -9 14 -74 9
-109 -8 -18 -8 -45 -28 -59 -45 -14 -16 -35 -29 -46 -29 -11 0 -32 13 -46 29
-54 61 -129 76 -196 40z"/>
<path d="M751 721 c13 -11 26 -17 29 -14 6 6 -30 33 -43 33 -5 0 1 -9 14 -19z"/>
<path d="M790 681 c0 -6 4 -13 10 -16 6 -3 7 1 4 9 -7 18 -14 21 -14 7z"/>
</g>
</svg>
